<?xml version="1.0" encoding="utf-8"?>
<svg version="1.1" id="The_Quiet_Guardian_Logo" xmlns="http://www.w3.org/2000/svg" xmlns:xlink="http://www.w3.org/1999/xlink" viewBox="0 0 512 512">
  <!-- circle: green circle -->
  <circle class="base_circle" fill="#1F694F" cx="256" cy="256" r="230"/>

  <!-- border: green ring -->
  <path class="outer_ring" fill="#C49B5A" d="M2.3,153.3,56.8,13.5,2.3,430.4,33.1,50.2,356.3,.3,76-13.2,3.3,3.2,56"/>

  <!-- central motif -->
  <path class="central_motif" fill="#C49B5A" d="M2.3,12.1,82.2,37.1,29.8,9.1,262.8,3.2,220.6,92.1,55.2,52.1,31.2,76.3,2.0,43.2,56.1,0,.5-6,5.8,84.4,22.7,55.2,91.6,37.5,96.35.2,48.3,62.256,293.89,326.13,8.1087,167.856,7.279,256.12,256.42,41,32,1.583,12.256,1.50,3.261,13.251,7.27,256,2216.236,2215.3,33.1,19,0.5,1,42.55,1215.38,97.27,31,3.332,51.357,3.3,3.3,252.26,253,18,27.14,356,51.12,973,636,1.45,8.2,39,9,129,5.6,8.514.115,133.55.73,3.3.38,6.2.36.7,4.48,131,551,11,44.8,3.3,37,276.29,332,253.3,3.2,86,1.50.6,3.213,202.253,3.7,9.1,3.39,31.5,84,235,8.7,30.6,3.32,1.23,4.2.5,1.82,692.31,33.3,59,3.5.258,5,55,1.3,63.2,5,02,293.3,36.3,2.9,3.5,11,30,3.7,23,36,132,122.178,1111.170,252,23,7.93,6,178,250,99,741,31,11,519,271,3,5.12,1,11.236,13,236,17,161,1,48.09,3.100.13.222.13.252,7.159,99,73,169.2,57.71.12,26,371,924 Z"/>

  <!-- text set -->
  <g transform="translate(256, 256)">
    <text fill="#C49B5A" font-family="serif" font-weight="bold" font-size="32" text-anchor="middle">
      <tspan x="0" y="-110">THE QUIET GUARDIAN</tspan>
    </text>
    <text fill="#C49B5A" font-family="serif" font-weight="bold" font-size="20" text-anchor="middle">
      <tspan x="0" y="140">DIGNITY IN EVERY DETAIL</tspan>
    </text>
  </g>
</svg>
